<svg width="139" height="72" viewBox="0 0 139 72" fill="none" xmlns="http://www.w3.org/2000/svg">
<g clipPath="url(#clip0_0_22887)">
<path d="M65.9282 36.751V31.9312C65.9282 22.8079 72.2972 19.5374 85.0353 19.5374C97.5152 19.5374 104.142 22.8079 104.142 31.9312V36.751C104.142 45.8742 97.4291 49.1448 85.0353 49.1448C72.2111 49.1448 65.9282 45.8742 65.9282 36.751ZM90.4576 36.751V31.9312C90.4576 29.6073 89.5108 27.2835 85.1214 27.2835C80.5597 27.2835 79.613 29.6073 79.613 31.9312V36.751C79.613 38.9887 80.5597 41.3987 85.1214 41.3987C89.5108 41.3987 90.4576 38.9887 90.4576 36.751Z" fill="#2299D5"/>
<path d="M139 39.9356V48.3703H105.864V43.5505L119.463 29.2632H105.606V20.7424H137.967V25.9926L125.057 39.9356H139Z" fill="#2299D5"/>
<path d="M60.2477 18.7628L67.7356 19.2793L74.8793 0L59.8174 0.172136L60.2477 18.7628Z" fill="#2299D5"/>
<path d="M30.0378 28.0583C24.4433 28.0583 24.1851 30.8986 24.1851 33.3085V35.202C24.1851 37.6119 24.4433 40.28 30.0378 40.28C35.6322 40.28 35.6322 36.9234 35.6322 35.8906V32.8782C35.6322 32.0175 35.6322 28.0583 30.0378 28.0583Z" fill="#2299D5"/>
<path d="M30.8985 6.54126C13.857 6.54126 0 20.3982 0 37.5258C0 54.5673 13.857 68.4242 30.8985 68.4242C47.9399 68.4242 61.7969 54.5673 61.7969 37.5258C61.7969 20.3982 48.026 6.54126 30.8985 6.54126ZM50.0916 47.3375C50.0916 58.6125 41.3988 60.0756 29.091 60.0756C27.8 60.0756 26.6811 60.0756 25.5622 60.0756V52.5877C32.9641 52.5016 35.7183 49.8335 35.7183 44.9276V44.4973C32.792 47.2515 29.005 48.5425 25.4762 48.5425C14.2873 48.5425 9.89783 44.6694 9.89783 34.6855V33.3084C9.89783 23.4106 15.5783 19.7957 25.1319 19.7957C29.7796 19.7957 34.169 20.8286 37.0093 24.0131L38.1282 19.9679H50.1777V47.3375H50.0916Z" fill="#2299D5"/>
<path d="M64.2068 60.4198H65.5839V61.7108C65.9282 61.2805 66.2725 60.9362 66.7028 60.678C67.1331 60.4198 67.5635 60.3337 67.9938 60.3337C68.3381 60.3337 68.5102 60.3337 68.6824 60.4198L68.5102 61.7108C68.4242 61.7108 68.3381 61.7108 68.1659 61.6248C68.0799 61.6248 67.9078 61.6248 67.8217 61.6248C67.5635 61.6248 67.3053 61.7108 67.0471 61.7969C66.7889 61.883 66.5307 62.0551 66.2725 62.2272C66.0142 62.3994 65.8421 62.6576 65.756 62.9158C65.5839 63.174 65.5839 63.5183 65.5839 63.8625V68.7684H64.2068V60.4198Z" fill="#2299D5"/>
<path d="M70.0594 57.3213H71.4365V58.9566H70.0594V57.3213ZM70.0594 60.4197H71.4365V68.5962H70.0594V60.4197Z" fill="#2299D5"/>
<path d="M73.33 64.551C73.33 63.1739 73.6743 62.1411 74.2768 61.3665C74.9653 60.5919 75.826 60.1615 76.9449 60.1615C77.3752 60.1615 77.8056 60.2476 78.2359 60.4197C78.6662 60.5919 79.0966 60.9362 79.4409 61.4526V57.3213H80.904V68.6823H79.5269V67.4773C79.1827 67.9077 78.8384 68.338 78.322 68.5101C77.9777 68.7683 77.4613 68.8544 76.8588 68.8544C76.0842 68.8544 75.3957 68.6823 74.8792 68.2519C74.3628 67.9077 74.0186 67.3913 73.7604 66.7027C73.4161 66.1002 73.33 65.3256 73.33 64.551ZM74.7932 64.551C74.7932 65.3256 74.8792 66.0142 75.1375 66.4445C75.3957 66.8748 75.6539 67.2191 75.9981 67.4773C76.3424 67.6495 76.6867 67.7355 77.117 67.7355C77.8916 67.7355 78.4941 67.4773 78.9244 67.047C79.3548 66.5306 79.613 65.842 79.613 64.8953V64.3789C79.613 63.3461 79.3548 62.5714 78.9244 62.1411C78.4941 61.7108 77.8916 61.4526 77.2031 61.4526C76.7727 61.4526 76.3424 61.5386 75.9981 61.7968C75.6539 61.969 75.3096 62.3132 75.1375 62.8296C74.8792 63.0879 74.7932 63.7764 74.7932 64.551Z" fill="#2299D5"/>
<path d="M82.7975 64.5511C82.7975 63.6043 82.9697 62.8297 83.3139 62.1412C83.6582 61.4526 84.0885 61.0223 84.691 60.678C85.2935 60.3338 85.982 60.1616 86.6706 60.1616C87.5313 60.1616 88.2198 60.3338 88.7362 60.678C89.2526 61.0223 89.683 61.4526 89.9412 62.0551C90.1994 62.6576 90.2854 63.3461 90.2854 64.1208V64.8093H84.1746C84.1746 65.67 84.4328 66.4446 84.8632 66.961C85.2935 67.4774 85.896 67.7356 86.6706 67.7356C87.3591 67.7356 87.8755 67.5635 88.2198 67.3053C88.5641 67.0471 88.7362 66.7028 88.8223 66.2725H90.1133C89.9412 67.0471 89.5969 67.6495 89.0805 68.166C88.478 68.5963 87.7034 68.8545 86.6706 68.8545C85.4656 68.8545 84.5189 68.5102 83.8303 67.7356C83.1418 66.961 82.7975 65.9282 82.7975 64.5511ZM84.5189 62.4855C84.3467 62.9158 84.2607 63.3461 84.1746 63.7765H88.8223C88.8223 62.9158 88.5641 62.3133 88.3059 61.883C87.9616 61.4526 87.4452 61.1944 86.5845 61.1944C85.982 61.1944 85.5517 61.2805 85.2074 61.5387C84.9492 61.7969 84.691 62.1412 84.5189 62.4855Z" fill="#2299D5"/>
<path d="M95.3635 64.5511C95.3635 63.6043 95.5356 62.8297 95.8799 62.1412C96.2241 61.4526 96.6545 61.0223 97.257 60.678C97.8594 60.3338 98.548 60.1616 99.2365 60.1616C100.097 60.1616 100.786 60.3338 101.302 60.678C101.819 61.0223 102.249 61.4526 102.507 62.0551C102.765 62.6576 102.851 63.3461 102.851 64.1208V64.8093H96.7406C96.7406 65.67 96.9988 66.4446 97.4291 66.961C97.8594 67.4774 98.4619 67.7356 99.2365 67.7356C99.9251 67.7356 100.441 67.5635 100.786 67.3053C101.13 67.0471 101.302 66.7028 101.388 66.2725H102.679C102.507 67.0471 102.163 67.6495 101.646 68.166C101.044 68.5963 100.269 68.8545 99.2365 68.8545C98.0316 68.8545 97.0848 68.5102 96.3963 67.7356C95.7077 66.961 95.3635 65.9282 95.3635 64.5511ZM97.0848 62.4855C96.9127 62.9158 96.8266 63.3461 96.7406 63.7765H101.388C101.388 62.9158 101.13 62.3133 100.872 61.883C100.528 61.4526 100.011 61.1944 99.1505 61.1944C98.548 61.1944 98.1176 61.2805 97.7734 61.5387C97.5152 61.7969 97.257 62.1412 97.0848 62.4855Z" fill="#2299D5"/>
<path d="M104.142 66.3585C104.142 65.7561 104.228 65.3257 104.487 64.9815C104.745 64.6372 105.003 64.379 105.433 64.1208C105.864 63.9486 106.294 63.7765 106.811 63.6904C107.327 63.6044 107.843 63.5183 108.36 63.5183L109.737 63.4322V63.088C109.737 62.3994 109.565 61.883 109.307 61.5387C109.048 61.1945 108.532 61.1084 107.843 61.1084C107.155 61.1084 106.724 61.1945 106.38 61.4527C106.036 61.7109 105.864 61.9691 105.778 62.3133L104.487 62.1412C104.659 61.3666 105.003 60.8502 105.52 60.5059C106.122 60.1616 106.811 59.9895 107.843 59.9895C109.048 59.9895 109.823 60.2477 110.339 60.8502C110.856 61.3666 111.028 62.1412 111.028 63.174V68.5102H109.737V67.3914C109.479 67.7356 109.048 68.0799 108.618 68.3381C108.188 68.5963 107.585 68.7685 106.897 68.7685C106.036 68.7685 105.433 68.5963 104.831 68.166C104.401 67.8217 104.142 67.2192 104.142 66.3585ZM105.606 66.3585C105.606 66.7889 105.692 67.1332 105.95 67.3914C106.208 67.6496 106.638 67.7356 107.155 67.7356C107.929 67.7356 108.532 67.5635 109.048 67.1332C109.565 66.7889 109.737 66.1864 109.737 65.4118V64.5511H108.446C107.671 64.5511 107.155 64.6372 106.724 64.8093C106.294 64.9815 106.036 65.1536 105.864 65.4118C105.692 65.67 105.606 65.9282 105.606 66.3585Z" fill="#2299D5"/>
<path d="M118.344 66.4445C118.344 66.1002 118.258 65.842 118.085 65.5838C117.913 65.3256 117.483 65.1535 116.88 65.0674L115.848 64.8953C114.901 64.7231 114.212 64.4649 113.696 64.1206C113.18 63.7764 113.007 63.26 113.007 62.4853C113.007 61.9689 113.18 61.5386 113.438 61.1943C113.696 60.85 114.126 60.5918 114.643 60.3336C115.159 60.1615 115.676 60.0754 116.278 60.0754C117.053 60.0754 117.655 60.1615 118.172 60.4197C118.602 60.5918 118.946 60.85 119.204 61.1943C119.463 61.5386 119.549 61.8829 119.721 62.3132L118.43 62.4853C118.258 62.055 118.085 61.7107 117.827 61.4525C117.569 61.1943 117.053 61.1083 116.364 61.1083C115.589 61.1083 115.073 61.1943 114.815 61.4525C114.557 61.7107 114.385 61.9689 114.385 62.3132C114.385 62.6575 114.471 62.9157 114.729 63.0878C114.901 63.26 115.331 63.4321 116.02 63.5182L117.225 63.6903C118.172 63.8624 118.86 64.1206 119.29 64.551C119.721 64.9813 119.893 65.4977 119.893 66.2723C119.893 66.9609 119.635 67.5634 119.032 67.9937C118.516 68.424 117.655 68.6823 116.536 68.6823C115.848 68.6823 115.245 68.5962 114.729 68.424C114.212 68.2519 113.782 67.9937 113.438 67.5634C113.093 67.133 112.921 66.6166 112.835 66.0141H114.126C114.212 66.6166 114.471 66.9609 114.815 67.2191C115.159 67.4773 115.762 67.5634 116.364 67.5634C117.053 67.5634 117.569 67.4773 117.827 67.2191C118.172 67.133 118.344 66.8748 118.344 66.4445Z" fill="#2299D5"/>
<path d="M121.27 70.5758C121.528 70.6619 121.872 70.748 122.131 70.748C122.475 70.748 122.733 70.6619 122.905 70.4898C123.077 70.3176 123.25 69.8873 123.508 69.3709L123.852 68.5102L120.409 60.5059H122.045L124.627 66.961L126.95 60.5059H128.5L124.885 69.4569C124.713 69.9733 124.454 70.4037 124.282 70.748C124.11 71.0922 123.852 71.4365 123.508 71.6086C123.25 71.7808 122.819 71.8668 122.389 71.8668C122.131 71.8668 121.872 71.8668 121.7 71.7808C121.528 71.7808 121.27 71.6947 121.012 71.6086L121.27 70.5758Z" fill="#2299D5"/>
</g>
<defs>
<clipPath id="clip0_0_22887">
<rect width="139" height="71.8669" fill="white"/>
</clipPath>
</defs>
</svg>
