<svg width="139" height="72" viewBox="0 0 139 72" fill="none" xmlns="http://www.w3.org/2000/svg">
<g clipPath="url(#clip0_0_22886)">
<path d="M65.9282 36.751V31.9312C65.9282 22.8079 72.2972 19.5374 85.0353 19.5374C97.5152 19.5374 104.142 22.8079 104.142 31.9312V36.751C104.142 45.8742 97.4291 49.1448 85.0353 49.1448C72.2111 49.1448 65.9282 45.8742 65.9282 36.751ZM90.4576 36.751V31.9312C90.4576 29.6073 89.5108 27.2835 85.1214 27.2835C80.5597 27.2835 79.613 29.6073 79.613 31.9312V36.751C79.613 38.9887 80.5597 41.3987 85.1214 41.3987C89.5108 41.3987 90.4576 38.9887 90.4576 36.751Z" fill="#2299D5"/>
<path d="M139 39.9356V48.3703H105.864V43.5505L119.463 29.2632H105.606V20.7424H137.967V25.9926L125.057 39.9356H139Z" fill="#2299D5"/>
<path d="M60.2477 18.7628L67.7356 19.2793L74.8793 0L59.8174 0.172136L60.2477 18.7628Z" fill="#2299D5"/>
<path d="M30.0378 28.0583C24.4433 28.0583 24.1851 30.8986 24.1851 33.3085V35.202C24.1851 37.6119 24.4433 40.28 30.0378 40.28C35.6322 40.28 35.6322 36.9234 35.6322 35.8906V32.8782C35.6322 32.0175 35.6322 28.0583 30.0378 28.0583Z" fill="#2299D5"/>
<path d="M30.8985 6.54126C13.857 6.54126 0 20.3982 0 37.5258C0 54.5673 13.857 68.4242 30.8985 68.4242C47.9399 68.4242 61.7969 54.5673 61.7969 37.5258C61.7969 20.3982 48.026 6.54126 30.8985 6.54126ZM50.0916 47.3375C50.0916 58.6125 41.3988 60.0756 29.091 60.0756C27.8 60.0756 26.6811 60.0756 25.5622 60.0756V52.5877C32.9641 52.5016 35.7183 49.8335 35.7183 44.9276V44.4973C32.792 47.2515 29.005 48.5425 25.4762 48.5425C14.2873 48.5425 9.89783 44.6694 9.89783 34.6855V33.3084C9.89783 23.4106 15.5783 19.7957 25.1319 19.7957C29.7796 19.7957 34.169 20.8286 37.0093 24.0131L38.1282 19.9679H50.1777V47.3375H50.0916Z" fill="#2299D5"/>
<path d="M70.233 67V56.8182H76.3778V57.9119H71.4659V61.3523H76.0597V62.446H71.4659V65.9062H76.4574V67H70.233ZM78.4411 67V59.3636H79.5746V60.517H79.6541C79.7933 60.1392 80.0452 59.8326 80.4098 59.5973C80.7744 59.362 81.1854 59.2443 81.6428 59.2443C81.7289 59.2443 81.8366 59.246 81.9659 59.2493C82.0952 59.2526 82.1929 59.2576 82.2592 59.2642V60.4574C82.2195 60.4474 82.1283 60.4325 81.9858 60.4126C81.8466 60.3894 81.6991 60.3778 81.5433 60.3778C81.1721 60.3778 80.8407 60.4557 80.549 60.6115C80.2607 60.764 80.032 60.9761 79.8629 61.2479C79.6972 61.5163 79.6143 61.8229 79.6143 62.1676V67H78.4411ZM84.7438 64.2159L84.7239 62.7642H84.9625L88.3034 59.3636H89.7551L86.1955 62.9631H86.0961L84.7438 64.2159ZM83.65 67V56.8182H84.8233V67H83.65ZM88.5023 67L85.5194 63.2216L86.3546 62.4062L89.9938 67H88.5023ZM91.2653 67V59.3636H92.4386V67H91.2653ZM91.8619 58.0909C91.6332 58.0909 91.436 58.013 91.2702 57.8572C91.1078 57.7015 91.0266 57.5142 91.0266 57.2955C91.0266 57.0767 91.1078 56.8894 91.2702 56.7337C91.436 56.5779 91.6332 56.5 91.8619 56.5C92.0906 56.5 92.2861 56.5779 92.4485 56.7337C92.6142 56.8894 92.6971 57.0767 92.6971 57.2955C92.6971 57.5142 92.6142 57.7015 92.4485 57.8572C92.2861 58.013 92.0906 58.0909 91.8619 58.0909ZM95.7608 62.4062V67H94.5875V59.3636H95.7211V60.5568H95.8205C95.9995 60.169 96.2712 59.8575 96.6358 59.6222C97.0004 59.3835 97.4711 59.2642 98.0478 59.2642C98.5648 59.2642 99.0172 59.3703 99.405 59.5824C99.7928 59.7912 100.094 60.1094 100.31 60.5369C100.525 60.9612 100.633 61.4981 100.633 62.1477V67H99.4597V62.2273C99.4597 61.6274 99.3039 61.16 98.9924 60.8253C98.6808 60.4872 98.2533 60.3182 97.7097 60.3182C97.3352 60.3182 97.0004 60.3994 96.7054 60.5618C96.4138 60.7242 96.1834 60.9612 96.0144 61.2727C95.8453 61.5843 95.7608 61.9621 95.7608 62.4062ZM112.124 61.0739L111.07 61.3722C111.003 61.1965 110.906 61.0258 110.776 60.8601C110.65 60.6911 110.478 60.5518 110.259 60.4425C110.04 60.3331 109.76 60.2784 109.419 60.2784C108.952 60.2784 108.562 60.3861 108.251 60.6016C107.942 60.8137 107.788 61.0838 107.788 61.4119C107.788 61.7036 107.894 61.9339 108.107 62.103C108.319 62.272 108.65 62.4129 109.101 62.5256L110.234 62.804C110.917 62.9697 111.426 63.2232 111.761 63.5646C112.095 63.9027 112.263 64.3385 112.263 64.8722C112.263 65.3097 112.137 65.7008 111.885 66.0455C111.636 66.3902 111.288 66.6619 110.841 66.8608C110.393 67.0597 109.873 67.1591 109.28 67.1591C108.501 67.1591 107.856 66.9901 107.346 66.652C106.835 66.3139 106.512 65.8201 106.376 65.1705L107.49 64.892C107.596 65.303 107.797 65.6113 108.092 65.8168C108.39 66.0223 108.779 66.125 109.26 66.125C109.807 66.125 110.241 66.009 110.562 65.777C110.887 65.5417 111.05 65.2599 111.05 64.9318C111.05 64.6667 110.957 64.4446 110.771 64.2656C110.586 64.0833 110.301 63.9474 109.916 63.858L108.643 63.5597C107.944 63.3939 107.43 63.1371 107.102 62.7891C106.777 62.4377 106.615 61.9986 106.615 61.4716C106.615 61.0407 106.736 60.6596 106.978 60.3281C107.223 59.9967 107.556 59.7365 107.977 59.5476C108.402 59.3587 108.882 59.2642 109.419 59.2642C110.175 59.2642 110.768 59.4299 111.199 59.7614C111.633 60.0928 111.941 60.5303 112.124 61.0739ZM116.276 67.179C115.792 67.179 115.353 67.0878 114.959 66.9055C114.564 66.7199 114.251 66.4531 114.019 66.1051C113.787 65.7538 113.671 65.3295 113.671 64.8324C113.671 64.3949 113.757 64.0402 113.93 63.7685C114.102 63.4934 114.332 63.2779 114.621 63.1222C114.909 62.9664 115.227 62.8504 115.575 62.7741C115.926 62.6946 116.279 62.6316 116.634 62.5852C117.098 62.5256 117.474 62.4808 117.763 62.451C118.054 62.4179 118.266 62.3632 118.399 62.2869C118.535 62.2107 118.603 62.0781 118.603 61.8892V61.8494C118.603 61.3589 118.469 60.9777 118.2 60.706C117.935 60.4342 117.532 60.2983 116.992 60.2983C116.432 60.2983 115.993 60.4209 115.675 60.6662C115.356 60.9115 115.133 61.1733 115.003 61.4517L113.89 61.054C114.089 60.59 114.354 60.2287 114.685 59.9702C115.02 59.7083 115.385 59.526 115.779 59.4233C116.177 59.3172 116.568 59.2642 116.952 59.2642C117.198 59.2642 117.479 59.294 117.797 59.3537C118.119 59.41 118.429 59.5277 118.727 59.7067C119.029 59.8857 119.279 60.1558 119.478 60.517C119.677 60.8783 119.776 61.3622 119.776 61.9688V67H118.603V65.9659H118.543C118.464 66.1316 118.331 66.3089 118.145 66.4979C117.96 66.6868 117.713 66.8475 117.405 66.9801C117.096 67.1127 116.72 67.179 116.276 67.179ZM116.455 66.125C116.919 66.125 117.31 66.0339 117.628 65.8516C117.95 65.6693 118.192 65.4339 118.354 65.1456C118.52 64.8572 118.603 64.554 118.603 64.2358V63.1619C118.553 63.2216 118.444 63.2763 118.275 63.326C118.109 63.3724 117.917 63.4138 117.698 63.4503C117.483 63.4834 117.272 63.5133 117.067 63.5398C116.864 63.563 116.7 63.5829 116.574 63.5994C116.269 63.6392 115.984 63.7038 115.719 63.7933C115.457 63.8795 115.245 64.0104 115.083 64.1861C114.924 64.3584 114.844 64.5937 114.844 64.892C114.844 65.2997 114.995 65.608 115.297 65.8168C115.602 66.0223 115.988 66.125 116.455 66.125ZM125.318 59.3636V60.358H121.202V59.3636H125.318ZM122.435 67V58.3097C122.435 57.8722 122.537 57.5076 122.743 57.2159C122.948 56.9242 123.215 56.7055 123.543 56.5597C123.871 56.4138 124.218 56.3409 124.582 56.3409C124.871 56.3409 125.106 56.3641 125.288 56.4105C125.471 56.4569 125.607 56.5 125.696 56.5398L125.358 57.554C125.298 57.5341 125.215 57.5092 125.109 57.4794C125.007 57.4496 124.871 57.4347 124.702 57.4347C124.314 57.4347 124.034 57.5324 123.862 57.728C123.692 57.9235 123.608 58.2102 123.608 58.5881V67H122.435ZM128.991 67.179C128.507 67.179 128.068 67.0878 127.673 66.9055C127.279 66.7199 126.966 66.4531 126.734 66.1051C126.502 65.7538 126.386 65.3295 126.386 64.8324C126.386 64.3949 126.472 64.0402 126.644 63.7685C126.817 63.4934 127.047 63.2779 127.335 63.1222C127.624 62.9664 127.942 62.8504 128.29 62.7741C128.641 62.6946 128.994 62.6316 129.349 62.5852C129.813 62.5256 130.189 62.4808 130.477 62.451C130.769 62.4179 130.981 62.3632 131.114 62.2869C131.25 62.2107 131.318 62.0781 131.318 61.8892V61.8494C131.318 61.3589 131.183 60.9777 130.915 60.706C130.65 60.4342 130.247 60.2983 129.707 60.2983C129.147 60.2983 128.708 60.4209 128.389 60.6662C128.071 60.9115 127.847 61.1733 127.718 61.4517L126.605 61.054C126.803 60.59 127.069 60.2287 127.4 59.9702C127.735 59.7083 128.099 59.526 128.494 59.4233C128.892 59.3172 129.283 59.2642 129.667 59.2642C129.912 59.2642 130.194 59.294 130.512 59.3537C130.834 59.41 131.144 59.5277 131.442 59.7067C131.744 59.8857 131.994 60.1558 132.193 60.517C132.392 60.8783 132.491 61.3622 132.491 61.9688V67H131.318V65.9659H131.258C131.178 66.1316 131.046 66.3089 130.86 66.4979C130.675 66.6868 130.428 66.8475 130.119 66.9801C129.811 67.1127 129.435 67.179 128.991 67.179ZM129.17 66.125C129.634 66.125 130.025 66.0339 130.343 65.8516C130.665 65.6693 130.907 65.4339 131.069 65.1456C131.235 64.8572 131.318 64.554 131.318 64.2358V63.1619C131.268 63.2216 131.159 63.2763 130.99 63.326C130.824 63.3724 130.632 63.4138 130.413 63.4503C130.197 63.4834 129.987 63.5133 129.781 63.5398C129.579 63.563 129.415 63.5829 129.289 63.5994C128.984 63.6392 128.699 63.7038 128.434 63.7933C128.172 63.8795 127.96 64.0104 127.798 64.1861C127.639 64.3584 127.559 64.5937 127.559 64.892C127.559 65.2997 127.71 65.608 128.012 65.8168C128.316 66.0223 128.703 66.125 129.17 66.125ZM134.632 67V59.3636H135.766V60.517H135.846C135.985 60.1392 136.237 59.8326 136.601 59.5973C136.966 59.362 137.377 59.2443 137.834 59.2443C137.92 59.2443 138.028 59.246 138.157 59.2493C138.287 59.2526 138.384 59.2576 138.451 59.2642V60.4574C138.411 60.4474 138.32 60.4325 138.177 60.4126C138.038 60.3894 137.891 60.3778 137.735 60.3778C137.364 60.3778 137.032 60.4557 136.74 60.6115C136.452 60.764 136.223 60.9761 136.054 61.2479C135.889 61.5163 135.806 61.8229 135.806 62.1676V67H134.632Z" fill="#2299D5"/>
</g>
<defs>
<clipPath id="clip0_0_22886">
<rect width="139" height="71.8669" fill="white"/>
</clipPath>
</defs>
</svg>
