<svg width="65" height="44" viewBox="0 0 65 44" fill="none" xmlns="http://www.w3.org/2000/svg">
<path d="M3.76072 21.0581L11.5298 18.8967L6.17501 15.8245L3.46667 18.4336L3.76072 21.0581Z" fill="#2D3134"/>
<path d="M33.5369 36.4659L41.306 34.3045L35.9358 31.2322L33.2274 33.8413L33.5369 36.4659Z" fill="#2D3134"/>
<path opacity="0.29" d="M3.76072 21.0581L11.5298 18.8967L6.17501 15.8245L3.46667 18.4336L3.76072 21.0581Z" fill="black"/>
<path opacity="0.29" d="M33.5369 36.4659L41.306 34.3045L35.9358 31.2322L33.2274 33.8413L33.5369 36.4659Z" fill="black"/>
<path d="M39.2167 33.3936C38.1798 32.8687 37.2357 32.8069 36.5393 33.1311L35.0691 33.9185C34.3262 34.2581 33.8464 35.0146 33.8464 36.1262C33.8464 38.2722 35.5952 40.8967 37.7464 41.962C38.8143 42.4869 39.7738 42.5487 40.4857 42.209C40.4857 42.209 41.9405 41.4371 42.0952 41.3444C42.7298 40.9739 43.1167 40.2483 43.1167 39.2448C43.1167 37.0834 41.3679 34.4743 39.2167 33.3936Z" fill="#2D3134"/>
<path opacity="0.29" d="M40.5321 42.1936C40.8107 42.0546 41.9559 41.4371 42.0952 41.3444C42.7297 40.9739 43.1166 40.2483 43.1166 39.2448C43.1166 38.3802 42.8381 37.4385 42.3583 36.5585L40.8881 37.3458C41.3678 38.2258 41.6464 39.1676 41.6464 40.0322C41.6619 41.082 41.2285 41.8385 40.5321 42.1936Z" fill="black"/>
<path d="M41.6619 40.0321C41.6619 42.1781 39.9131 43.0581 37.7619 41.9774C35.6107 40.8967 33.8619 38.2876 33.8619 36.1416C33.8619 33.9957 35.6107 33.1157 37.7619 34.1964C39.9131 35.2616 41.6619 37.8862 41.6619 40.0321Z" fill="#2D3134"/>
<path d="M40.7953 39.5999C40.7953 41.2827 39.4333 41.962 37.7464 41.1283C36.0595 40.2946 34.6976 38.2413 34.6976 36.5585C34.6976 34.8757 36.0595 34.1964 37.7464 35.0301C39.4333 35.8792 40.7953 37.9171 40.7953 39.5999Z" fill="#E5E5E5"/>
<path d="M39.7583 40.9584C40.2226 40.6959 40.5012 40.1865 40.5012 39.4608C40.5012 39.3991 40.5012 39.3373 40.5012 39.291L38.7988 39.0286L39.7583 40.9584Z" fill="#2D3134"/>
<path d="M38.3965 37.6082L40.1763 37.9942C39.8048 37.1142 39.1394 36.2496 38.3346 35.6938L38.3965 37.6082Z" fill="#2D3134"/>
<path d="M37.1119 36.9753L37.1738 35.1226C36.3691 34.891 35.7036 35.0763 35.3322 35.5858L37.1119 36.9753Z" fill="#2D3134"/>
<path d="M35.0072 36.543C35.0072 36.6047 35.0072 36.651 35.0072 36.7128C35.0072 37.4384 35.2858 38.2258 35.7501 38.9514L36.7251 37.9942L35.0072 36.543Z" fill="#2D3134"/>
<path d="M37.7465 39.2448L36.6941 40.0939C37.0191 40.3872 37.375 40.6342 37.7465 40.8195C38.1179 41.0047 38.4739 41.1128 38.7989 41.1283L37.7465 39.2448Z" fill="#2D3134"/>
<path opacity="0.11" d="M41.6619 40.0321C41.6619 42.1781 39.9131 43.0581 37.7619 41.9774C35.6107 40.8967 33.8619 38.2876 33.8619 36.1416C33.8619 33.9957 35.6107 33.1157 37.7619 34.1964C39.9131 35.2616 41.6619 37.8862 41.6619 40.0321Z" fill="black"/>
<path d="M9.47143 18.4645C8.43453 17.9396 7.49048 17.8778 6.79405 18.202L5.32382 18.9894C4.58096 19.3291 4.1012 20.0855 4.1012 21.1971C4.1012 23.3431 5.85001 25.9677 8.0012 27.0329C9.06905 27.5578 10.0286 27.6196 10.7405 27.2799C10.7405 27.2799 12.1952 26.508 12.35 26.4154C12.9845 26.0448 13.3714 25.3192 13.3714 24.3157C13.3869 22.1543 11.6381 19.5452 9.47143 18.4645Z" fill="#2D3134"/>
<path opacity="0.29" d="M10.8024 27.2645C11.0809 27.1255 12.2262 26.508 12.3655 26.4154C13 26.0448 13.3869 25.3192 13.3869 24.3157C13.3869 23.4511 13.1083 22.5094 12.6286 21.6294L11.1583 22.4168C11.6381 23.2968 11.9167 24.2385 11.9167 25.1031C11.9167 26.1529 11.4833 26.894 10.8024 27.2645Z" fill="black"/>
<path d="M11.9167 25.0877C11.9167 27.2337 10.1679 28.1137 8.0167 27.033C5.86551 25.9523 4.1167 23.3431 4.1167 21.1972C4.1167 19.0512 5.86551 18.1712 8.0167 19.2519C10.1679 20.3326 11.9167 22.9417 11.9167 25.0877Z" fill="#2D3134"/>
<path d="M11.0655 24.6708C11.0655 26.3536 9.70361 27.0329 8.01671 26.1992C6.3298 25.3656 4.9679 23.3122 4.9679 21.6294C4.9679 19.9466 6.3298 19.2673 8.01671 20.101C9.70361 20.9347 11.0655 22.988 11.0655 24.6708Z" fill="#E5E5E5"/>
<path d="M10.0286 26.0139C10.4929 25.7515 10.7715 25.242 10.7715 24.5164C10.7715 24.4546 10.7715 24.3929 10.7715 24.3466L9.06909 24.0841L10.0286 26.0139Z" fill="#2D3134"/>
<path d="M8.65126 22.6638L10.431 23.0497C10.0596 22.1697 9.39412 21.3052 8.58936 20.7494L8.65126 22.6638Z" fill="#2D3134"/>
<path d="M7.38218 22.0308L7.44408 20.1782C6.63932 19.9466 5.97385 20.1318 5.60242 20.6413L7.38218 22.0308Z" fill="#2D3134"/>
<path d="M5.27747 21.5985C5.27747 21.6603 5.27747 21.7066 5.27747 21.7683C5.27747 22.494 5.55604 23.2813 6.02032 24.0069L6.99532 23.0497L5.27747 21.5985Z" fill="#2D3134"/>
<path d="M8.01674 24.3157L6.96436 25.1648C7.28936 25.4581 7.64531 25.7051 8.01674 25.8904C8.38817 26.0757 8.74412 26.1837 9.06912 26.1992L8.01674 24.3157Z" fill="#2D3134"/>
<path opacity="0.11" d="M11.9167 25.0877C11.9167 27.2337 10.1679 28.1137 8.0167 27.033C5.86551 25.9523 4.1167 23.3431 4.1167 21.1972C4.1167 19.0512 5.86551 18.1712 8.0167 19.2519C10.1679 20.3326 11.9167 22.9417 11.9167 25.0877Z" fill="black"/>
<path d="M61.2857 24.8561C58.2988 22.2006 45.4226 12.1038 43.2714 10.5136C41.1202 8.92345 33.3357 4.04485 28.1048 2.7017C22.8738 1.35854 22.2238 2.14591 21.156 1.91433C20.0881 1.68275 16.9155 0.941697 12.2417 2.37749C10.2452 2.99503 7.87738 3.67433 5.94286 5.40345C3.37381 7.68836 1.39286 11.2392 0.433337 13.1691L0.232146 13.8175C-0.123806 14.9754 0.0309561 16.2413 0.650004 17.2757C1.17619 18.1557 1.84167 19.1747 2.33691 19.7305C2.77024 20.2091 3.29643 20.7185 3.74524 21.1508C3.74524 21.1199 3.74524 21.0736 3.74524 21.0428C3.74524 19.4063 4.70476 18.3564 6.19048 18.3564C6.77857 18.3564 7.4131 18.5263 8.0631 18.8505C10.3071 19.962 12.1179 22.6947 12.1179 24.9333C12.1179 25.2266 12.0869 25.5045 12.025 25.767L33.5214 36.4813C33.506 36.3115 33.4905 36.1417 33.4905 35.9873C33.4905 34.3508 34.45 33.301 35.9357 33.301C36.5238 33.301 37.1583 33.4708 37.8083 33.795C40.0524 34.9066 41.8631 37.6392 41.8631 39.8778C41.8631 40.1403 41.8321 40.3719 41.7857 40.6035L43.5036 41.4526C43.5036 41.4526 46.7226 42.2863 48.781 42.101C50.8393 41.9157 55.0798 40.5263 58.4845 38.8435C61.8893 37.1606 64.7679 34.1964 64.8298 32.6526C64.8607 32.0659 64.2726 27.5115 61.2857 24.8561Z" fill="#2299D5" fill-opacity="0.4"/>
<path d="M49.3382 15.8245C49.3382 15.8245 49.1524 14.5277 49.3382 14.188C49.5239 13.8638 49.8489 13.3544 50.2667 13.7249C50.6846 14.0954 51.1489 15.1607 50.731 16.1487C50.3132 17.1368 49.3382 15.8245 49.3382 15.8245Z" fill="#2299D5" fill-opacity="0.4"/>
<path opacity="0.3" d="M2.13574 10.7606C2.13574 10.7606 12.1024 17.6308 23.5548 23.7754C35.0072 29.9199 41.0274 33.409 41.0274 33.409L33.9548 27.3571L8.58931 12.5978L2.13574 10.7606Z" fill="white"/>
<path d="M8.83691 12.7522L33.9393 27.3726C33.9393 27.3726 31.5095 16.72 22.9357 12.428C14.3619 8.1361 8.83691 12.7522 8.83691 12.7522Z" fill="#2D3134"/>
<path d="M19.2989 4.84764C22.6417 3.2729 25.3655 2.7943 25.3655 2.47009C25.3655 2.14588 16.7762 1.72904 11.4679 4.38448C6.15958 7.03992 6.42268 9.32483 8.43458 9.07781C10.4465 8.83079 13.1393 8.61465 13.9905 8.19781C14.8417 7.78097 16.4512 6.19079 19.2989 4.84764Z" fill="#2D3134"/>
<path d="M8.34166 8.72278C8.14047 8.72278 7.66071 8.67646 7.58333 8.32137C7.45952 7.79646 8.17142 6.32979 11.7774 4.53892C15.7238 2.57821 21.2798 2.42383 22.8893 2.42383C23.7095 2.42383 24.3286 2.45471 24.7464 2.50102C24.5298 2.57821 24.2976 2.65541 24.05 2.7326C22.9357 3.08769 21.2488 3.62804 19.3762 4.52348C17.4726 5.41892 16.0798 6.4533 15.1667 7.11716C14.6869 7.45681 14.3155 7.73471 14.0524 7.87365C13.4024 8.19786 11.3905 8.414 9.62619 8.61471C9.27023 8.66102 8.91428 8.6919 8.58928 8.72278C8.49642 8.72278 8.41904 8.72278 8.34166 8.72278Z" fill="#656565"/>
<path d="M30.8595 16.9051C30.55 17.7543 35.5179 26.122 37.0655 26.5388C38.5976 26.9557 43.225 26.8167 47.7905 24.3002C52.356 21.7837 53.2072 19.8385 52.975 19.1283C52.7429 18.4336 43.9679 11.0694 42.5286 10.9304C41.0893 10.7915 31.231 15.8708 30.8595 16.9051Z" fill="#2D3134"/>
<path opacity="0.2" d="M43.0393 35.0455C43.0393 35.0455 43.6893 34.181 45.4381 33.9803C47.1869 33.795 49.3226 33.9648 50.9167 35.3852C52.1084 36.4505 52.5417 36.8982 52.5417 36.8982C52.5417 36.8982 49.1679 37.9943 47.4964 37.7627C45.8405 37.5312 43.0393 35.0455 43.0393 35.0455Z" fill="white"/>
<path d="M43.3643 34.7522C43.3643 34.7522 43.9678 33.9494 45.5774 33.7795C47.1869 33.6097 49.1678 33.7641 50.6381 35.0764C51.7369 36.049 52.1393 36.4659 52.1393 36.4659C52.1393 36.4659 49.0285 37.4848 47.4809 37.2687C45.9333 37.0525 43.3643 34.7522 43.3643 34.7522Z" fill="#E5E5E5"/>
<path opacity="0.2" d="M61.8119 32.0196C61.8119 32.0196 64.1643 29.8273 64.0405 29.2098C63.9167 28.5768 62.106 25.4582 61.8739 25.9213C61.6417 26.3845 61.1465 27.1256 61.3322 27.7585C61.5179 28.3915 61.8584 31.4638 61.8119 32.0196Z" fill="white"/>
<path d="M61.7965 31.5873C61.7965 31.5873 64.0096 29.3951 63.9012 28.7775C63.7774 28.1445 61.9667 25.0259 61.7346 25.4891C61.5024 25.9523 61.0072 26.6933 61.1929 27.3263C61.3786 27.9438 61.8429 31.0161 61.7965 31.5873Z" fill="#E5E5E5"/>
<path d="M47.775 40.835L47.6976 41.5143C47.6976 41.5143 54.6155 40.6343 58.9643 37.9635C63.2976 35.2926 64.35 33.2084 64.35 33.2084C64.35 33.2084 61.0072 36.821 56.9214 38.4884C52.6345 40.2175 47.775 40.835 47.775 40.835Z" fill="#2D3134"/>
<path d="M51.9846 18.5571C51.1953 17.8006 49.6941 16.4729 47.7905 14.9445C44.6953 12.4434 42.8846 11.2855 42.4512 11.2546H42.4357C41.8012 11.2546 39.2786 12.3045 36.4619 13.7557C33.2274 15.4076 31.4941 16.581 31.2465 16.936C31.2774 17.3683 32.1286 19.2055 33.7072 21.7374C35.456 24.5318 36.725 25.9213 37.1429 26.0448C37.375 26.1066 37.6691 26.1529 38.0096 26.1838C40.0524 25.875 43.581 25.0876 47.0167 23.0652C49.9262 21.3515 51.3191 19.6996 51.9846 18.5571Z" fill="#656565"/>
<path d="M10.9572 12.1656L10.6322 13.1382L20.2893 18.7578L21.837 12.5515L21.7905 12.4898C19.7477 11.5943 17.7358 11.1466 15.7703 11.1466C13.712 11.162 12.0715 11.6715 10.9572 12.1656Z" fill="#656565"/>
<path d="M31.3083 25.1803L31.6952 22.8182C31.525 22.4632 31.3547 22.1081 31.1535 21.7375C29.6988 18.9895 27.1297 15.2996 23.0595 13.1228L22.1 19.8077L31.3083 25.1803Z" fill="#656565"/>
<path opacity="0.2" d="M12.5666 16.9207C12.5666 17.3684 12.1952 17.5536 11.7464 17.3375C11.2976 17.1059 10.9261 16.5656 10.9261 16.1024C10.9261 15.6393 11.2976 15.4694 11.7464 15.6856C12.1952 15.9172 12.5666 16.4575 12.5666 16.9207Z" fill="black"/>
<path d="M10.4309 15.5311L10.075 15.9325C10.075 15.9325 12.6595 17.6153 12.8916 17.2757C13.1392 16.9515 10.4309 15.5311 10.4309 15.5311Z" fill="#2299D5" fill-opacity="0.4"/>
<path opacity="0.2" d="M23.5857 23.1733C23.5857 23.621 23.2142 23.8063 22.7654 23.5902C22.3166 23.3586 21.9452 22.8182 21.9452 22.3551C21.9452 21.9074 22.3166 21.7221 22.7654 21.9382C23.2142 22.1698 23.5857 22.7102 23.5857 23.1733Z" fill="#2299D5" fill-opacity="0.4"/>
<path d="M21.4499 21.7683L21.094 22.1697C21.094 22.1697 23.6785 23.8525 23.9107 23.5129C24.1583 23.1887 21.4499 21.7683 21.4499 21.7683Z" fill="#2299D5" fill-opacity="0.4"/>
<path opacity="0.2" d="M33.8774 27.3572C33.8774 27.3726 33.5988 28.4379 33.3667 29.7347C33.15 30.908 33.0262 34.7986 32.9953 35.4933L20.6762 29.2716C20.6607 29.0245 20.4905 26.7242 20.4905 24.6245C20.4905 22.4168 21.0477 19.9621 21.0477 19.9466L20.9084 19.9158C20.9084 19.9466 20.3512 22.4168 20.3512 24.6245C20.3512 26.5698 20.4905 28.7003 20.5369 29.1944L14.4084 26.1066C14.2691 25.9214 12.7834 23.8989 11.3286 20.8266C9.82741 17.6617 10.1834 13.6477 10.1988 13.6014L10.0596 13.5859C10.0596 13.6323 9.68813 17.6772 11.2048 20.8884C12.7369 24.0996 14.3 26.1838 14.3155 26.1993L14.331 26.2147L33.1191 35.7249V35.6168C33.1191 35.5705 33.2584 31.047 33.4905 29.7656C33.7227 28.4842 34.0012 27.4035 34.0012 27.4035L33.8774 27.3572Z" fill="black"/>
<path opacity="0.3" d="M48.6108 34.9221C48.6108 35.4779 48.162 36.1417 47.6048 36.4196C47.0477 36.6975 46.5989 36.4659 46.5989 35.9256C46.5989 35.3698 47.0477 34.7059 47.6048 34.428C48.162 34.1502 48.6108 34.3663 48.6108 34.9221Z" fill="black"/>
<path opacity="0.3" d="M50.1584 35.3235C50.1584 35.7094 49.8488 36.1726 49.4619 36.3733C49.075 36.5586 48.7655 36.4042 48.7655 36.0182C48.7655 35.6323 49.075 35.1691 49.4619 34.9684C49.8488 34.7831 50.1584 34.9375 50.1584 35.3235Z" fill="black"/>
<path d="M46.3821 35.8329C46.3821 36.0336 46.2119 36.296 46.0107 36.3887C45.8095 36.4967 45.6393 36.4041 45.6393 36.2034C45.6393 36.0027 45.8095 35.7402 46.0107 35.6476C46.2119 35.5395 46.3821 35.6167 46.3821 35.8329Z" fill="white"/>
<path opacity="0.4" d="M48.1929 35.3389C48.1929 35.6167 47.9607 35.9564 47.6976 36.0953C47.4191 36.2343 47.2024 36.1262 47.2024 35.8483C47.2024 35.5704 47.4345 35.2308 47.6976 35.0918C47.9607 34.9529 48.1929 35.061 48.1929 35.3389Z" fill="white"/>
<path opacity="0.4" d="M49.8952 35.6014C49.8952 35.8021 49.725 36.0646 49.5238 36.1572C49.3226 36.2653 49.1523 36.1726 49.1523 35.9719C49.1523 35.7712 49.3226 35.5088 49.5238 35.4161C49.725 35.3081 49.8952 35.4007 49.8952 35.6014Z" fill="white"/>
<path d="M45.825 34.5823C45.825 34.7831 45.6548 35.0455 45.4536 35.1381C45.2524 35.2462 45.0822 35.1536 45.0822 34.9529C45.0822 34.7522 45.2524 34.4897 45.4536 34.3971C45.6548 34.289 45.825 34.3816 45.825 34.5823Z" fill="white"/>
<path d="M62.3691 26.4617C62.3691 26.6624 62.1988 26.9248 61.9976 27.0175C61.7965 27.1255 61.6262 27.0329 61.6262 26.8322C61.6262 26.6315 61.7965 26.369 61.9976 26.2764C62.1988 26.1683 62.3691 26.2455 62.3691 26.4617Z" fill="white"/>
<path d="M63.0655 27.4343C63.0655 27.635 62.8952 27.8974 62.6941 27.9901C62.4929 28.0981 62.3226 28.0055 62.3226 27.8048C62.3226 27.6041 62.4929 27.3416 62.6941 27.249C62.8952 27.1409 63.0655 27.2336 63.0655 27.4343Z" fill="white"/>
<path opacity="0.3" d="M63.2822 28.0827C63.2822 28.5613 62.8953 29.1325 62.4155 29.3641C61.9357 29.5957 61.5488 29.4104 61.5488 28.9318C61.5488 28.4532 61.9357 27.882 62.4155 27.6504C62.8953 27.4189 63.2822 27.6196 63.2822 28.0827Z" fill="black"/>
<path opacity="0.4" d="M62.7715 28.5923C62.7715 28.8393 62.5703 29.1326 62.3381 29.2561C62.0905 29.3796 61.9048 29.2716 61.9048 29.04C61.9048 28.8084 62.106 28.4996 62.3381 28.3761C62.5703 28.2526 62.7715 28.3452 62.7715 28.5923Z" fill="white"/>
<path opacity="0.3" d="M62.5858 29.3796C62.5858 28.9937 62.2762 28.8393 61.8893 29.0245C61.7655 29.0863 61.6572 29.1635 61.5643 29.2716C61.6262 29.6884 61.6881 30.1207 61.7346 30.4912C61.781 30.4758 61.8429 30.4603 61.9048 30.4295C62.2762 30.2442 62.5858 29.7656 62.5858 29.3796Z" fill="black"/>
<path opacity="0.3" d="M43.3643 34.7367C44.1226 34.675 46.2583 34.5669 47.6047 34.8911C48.9512 35.2153 51.2881 36.1108 52.1238 36.4504C52.0309 36.3578 51.5976 35.9255 50.6381 35.0764C49.1678 33.7641 47.1869 33.6097 45.5774 33.7795C44.1071 33.9339 43.4726 34.6132 43.3643 34.7367Z" fill="black"/>
<path d="M30.4416 23.6056C30.4416 23.6056 31.6024 24.1614 32.1286 24.8561C32.6393 25.5509 32.6393 25.9214 32.6393 25.9214C32.6393 25.9214 29.4202 26.6161 27.8262 25.5972C26.1393 24.501 30.4416 23.6056 30.4416 23.6056Z" fill="#2299D5"/>
<path d="M38.9071 26.2919L39.4952 26.2456L44.9119 23.621L45.2059 23.0807L48.5023 21.5523L48.3631 21.2898L42.0642 24.0842L42.25 24.3158L44.6952 23.2351L44.5559 23.3894L39.2631 25.9214L38.9071 26.2919Z" fill="#2D3134"/>
<path d="M44.6333 24.8407H45.144L49.4619 21.6449L49.9881 20.4098L51.644 18.3101L51.5357 18.1558L48.425 21.6912L48.5488 21.8765L49.3845 21.1354L49.1524 21.5523L44.7726 24.5782L44.6333 24.8407Z" fill="#2D3134"/>
<path d="M51.1643 35.0301L52.9595 36.6357C52.9595 36.6357 55.5595 36.1417 57.881 34.9529C60.2024 33.7642 61.5953 32.1586 61.5953 32.1586L61.4095 29.8119C61.4095 29.8119 60.3572 31.7108 57.3238 33.2084C54.631 34.5515 51.1643 35.0301 51.1643 35.0301Z" fill="#2D3134"/>
<path opacity="0.29" d="M58.3762 38.4267C61.7654 36.7284 64.6595 33.8568 64.7214 32.313C64.7369 32.0505 64.7523 31.6182 64.3809 30.3986C64.35 30.2905 64.2107 30.2751 64.1488 30.3677C62.9571 32.066 60.9297 34.2737 57.7726 35.7867C54.4916 37.3614 50.4678 38.7046 47.3726 38.5502C46.6452 38.5193 46.5214 39.2449 46.4595 40.3874C46.4285 41.1284 47.0476 41.746 47.7904 41.6688C50.4523 41.4063 54.7238 40.2484 58.3762 38.4267Z" fill="black"/>
<path opacity="0.11" d="M43.8286 36.4041C42.7453 35.1845 36.5548 28.7003 34.9453 26.1684C32.8405 22.8799 29.4048 14.8364 23.0751 11.8259C16.7298 8.81538 9.54887 10.0968 7.3822 10.2512C6.06672 10.3284 4.02387 9.84977 2.60006 9.44836C1.67149 10.8533 0.944105 12.2119 0.464343 13.1845L0.263152 13.8329C-0.0928 14.9908 0.061962 16.2568 0.68101 17.2912C1.2072 18.1712 1.87268 19.1901 2.36791 19.7459C2.80125 20.2245 3.32744 20.734 3.77625 21.1663C3.77625 21.1354 3.77625 21.0891 3.77625 21.0582C3.77625 19.4217 4.73577 18.3719 6.22148 18.3719C6.80958 18.3719 7.4441 18.5417 8.0941 18.8659C10.3382 19.9775 12.1489 22.7101 12.1489 24.9487C12.1489 25.242 12.1179 25.5199 12.056 25.7824L33.5524 36.4968C33.537 36.327 33.5215 36.1571 33.5215 36.0028C33.5215 34.3663 34.481 33.3164 35.9667 33.3164C36.5548 33.3164 37.1893 33.4863 37.8393 33.8105C40.0834 34.922 41.8941 37.6547 41.8941 39.8933C41.8941 40.1557 41.8632 40.3873 41.8167 40.6189L43.5346 41.468C43.5346 41.468 44.4322 41.6996 45.5774 41.9003C45.2989 39.6308 44.7262 37.4231 43.8286 36.4041Z" fill="black"/>
<path d="M0.680995 13.6631C0.680995 13.6631 1.656 11.1775 2.19766 10.4055C2.73933 9.6336 3.3429 8.93887 3.3429 8.93887L3.17266 8.47571C3.17266 8.47571 2.02742 8.87711 1.82623 9.21676C1.60957 9.57185 0.448853 13.169 0.448853 13.169L0.680995 13.6631Z" fill="#2299D5" fill-opacity="0.4"/>
<path opacity="0.2" d="M51.6905 19.0048C51.7988 18.8504 51.8917 18.696 51.9691 18.5571C51.1798 17.8006 49.6786 16.4729 47.775 14.9445C44.6798 12.4434 42.8691 11.2855 42.4357 11.2546H42.4202C41.7857 11.2546 39.2631 12.3045 36.4464 13.7557C33.2119 15.4076 31.4786 16.581 31.231 16.936C31.2464 17.075 31.3393 17.3838 31.525 17.8006C38.1333 15.6701 45.3607 16.0869 51.6905 19.0048Z" fill="black"/>
<path d="M56.2405 37.5466V39.8006L60.3107 37.7781V35.5396L56.2405 37.5466Z" fill="#E5E5E5"/>
<path opacity="0.2" d="M61.7965 31.5873C61.7965 31.5873 64.0096 29.3951 63.9012 28.7775C63.7774 28.1445 61.9667 25.0259 61.7346 25.4891C61.5024 25.9523 61.0072 26.6933 61.1929 27.3263C61.3786 27.9438 61.8429 31.0161 61.7965 31.5873Z" fill="black"/>
<path d="M31.0762 17.5845C30.5809 16.3649 27.1452 12.4744 23.3381 10.6063C18.5405 8.25963 14.3619 8.25963 13.5107 8.38314L13.4797 8.18244C14.3464 8.05893 18.5869 8.05893 23.4309 10.421C25.1178 11.2393 26.944 12.5824 28.6 14.1881C29.9155 15.454 30.9833 16.7972 31.2774 17.5074L31.0762 17.5845Z" fill="#2D3134"/>
<path d="M43.3488 11.5788L43.3333 11.5634C41.7857 10.4364 37.6536 7.44129 33.8464 5.58866C29.0643 3.25743 25.3345 2.53181 24.5143 2.53181V2.31567C25.35 2.31567 29.1262 3.04129 33.9393 5.40339C37.7619 7.27146 41.894 10.2666 43.4571 11.3936L43.4726 11.409L43.3488 11.5788Z" fill="#2D3134"/>
</svg>
