<svg width="19" height="22" viewBox="0 0 19 22" fill="none" xmlns="http://www.w3.org/2000/svg">
<path d="M0.75 8.75C0.75 4.97876 0.75 3.09315 1.9948 1.92157C3.23959 0.75 5.24306 0.75 9.25 0.75H10.0227C13.2839 0.75 14.9145 0.75 16.0469 1.54784C16.3714 1.77643 16.6594 2.04752 16.9023 2.35289C17.75 3.41867 17.75 4.95336 17.75 8.02273V10.5682C17.75 13.5314 17.75 15.0129 17.2811 16.1962C16.5272 18.0986 14.9329 19.5991 12.9116 20.3086C11.6544 20.75 10.0802 20.75 6.93182 20.75C5.13275 20.75 4.23322 20.75 3.51478 20.4978C2.35979 20.0924 1.44875 19.2349 1.01796 18.1479C0.75 17.4717 0.75 16.6251 0.75 14.9318V8.75Z" stroke="#98A2B3" strokeWidth="1.5" strokeLinejoin="round"/>
<path d="M17.75 10.75C17.75 12.5909 16.2576 14.0833 14.4167 14.0833C13.7509 14.0833 12.966 13.9667 12.3186 14.1401C11.7435 14.2942 11.2942 14.7435 11.1401 15.3186C10.9667 15.966 11.0833 16.7509 11.0833 17.4167C11.0833 19.2576 9.59095 20.75 7.75 20.75" stroke="#98A2B3" strokeWidth="1.5" strokeLinecap="round" strokeLinejoin="round"/>
<path d="M5.25 5.75H12.25" stroke="#98A2B3" strokeWidth="1.5" strokeLinecap="round" strokeLinejoin="round"/>
<path d="M5.25 9.75H8.25" stroke="#98A2B3" strokeWidth="1.5" strokeLinecap="round" strokeLinejoin="round"/>
</svg>
