<svg width="27" height="24" viewBox="0 0 27 24" fill="none" xmlns="http://www.w3.org/2000/svg">
<path d="M21.1319 6.58112L23.7583 6.76226L26.264 0L20.981 0.0603773L21.1319 6.58112Z" fill="#2299D5"/>
<path d="M10.5357 9.84155C8.57348 9.84155 8.48291 10.8378 8.48291 11.6831V12.3472C8.48291 13.1925 8.57348 14.1283 10.5357 14.1283C12.498 14.1283 12.498 12.951 12.498 12.5887V11.5321C12.498 11.2302 12.498 9.84155 10.5357 9.84155Z" fill="#2299D5"/>
<path d="M10.8377 2.29443C4.86037 2.29443 0 7.1548 0 13.1623C0 19.1397 4.86037 24.0001 10.8377 24.0001C16.8151 24.0001 21.6754 19.1397 21.6754 13.1623C21.6754 7.1548 16.8453 2.29443 10.8377 2.29443ZM17.5698 16.6038C17.5698 20.5586 14.5207 21.0718 10.2038 21.0718C9.75093 21.0718 9.35848 21.0718 8.96603 21.0718V18.4454C11.5623 18.4152 12.5283 17.4793 12.5283 15.7586V15.6076C11.5019 16.5737 10.1736 17.0265 8.93584 17.0265C5.01131 17.0265 3.47169 15.668 3.47169 12.1661V11.6831C3.47169 8.21141 5.46414 6.94348 8.81508 6.94348C10.4453 6.94348 11.9849 7.30575 12.9811 8.42273L13.3736 7.00386H17.6V16.6038H17.5698Z" fill="#2299D5"/>
</svg>
