<svg width="14" height="14" viewBox="0 0 14 14" fill="none" xmlns="http://www.w3.org/2000/svg">
<path d="M1.36206 6.02978C1.17933 5.8608 1.27859 5.55531 1.52575 5.52601L5.02783 5.11062C5.12856 5.09868 5.21606 5.03542 5.25854 4.94331L6.73568 1.74094C6.83992 1.51493 7.16122 1.51489 7.26546 1.74089L8.74259 4.94324C8.78508 5.03535 8.87201 5.09878 8.97274 5.11072L12.475 5.52601C12.7222 5.55531 12.8212 5.86089 12.6384 6.02987L10.0495 8.42445C9.97506 8.49332 9.9419 8.59583 9.96167 8.69532L10.6488 12.1543C10.6973 12.3984 10.4375 12.5876 10.2203 12.466L7.143 10.743C7.05449 10.6935 6.94695 10.6937 6.85844 10.7433L3.78084 12.4656C3.56366 12.5871 3.30338 12.3984 3.35189 12.1543L4.03908 8.69554C4.05885 8.59604 4.02578 8.4933 3.95131 8.42443L1.36206 6.02978Z" fill="#F8C51B" stroke="#F8C51B" strokeLinecap="round" strokeLinejoin="round"/>
</svg>
